<?xml version="1.0" encoding="UTF-8"?>
<svg xmlns="http://www.w3.org/2000/svg" viewBox="0 0 1280 900" font-family="'JetBrains Mono', 'DejaVu Sans Mono', monospace" font-size="12">
  <defs>
    <pattern id="grid" width="40" height="40" patternUnits="userSpaceOnUse">
      <path d="M 40 0 L 0 0 0 40" fill="none" stroke="#1e293b" stroke-width="0.5"/>
    </pattern>
    <marker id="arrow" viewBox="0 0 10 10" refX="9" refY="5" markerWidth="8" markerHeight="8" orient="auto-start-reverse">
      <path d="M 0 0 L 10 5 L 0 10 z" fill="#94a3b8"/>
    </marker>
    <marker id="arrow-cyan" viewBox="0 0 10 10" refX="9" refY="5" markerWidth="8" markerHeight="8" orient="auto-start-reverse">
      <path d="M 0 0 L 10 5 L 0 10 z" fill="#22d3ee"/>
    </marker>
    <marker id="arrow-emerald" viewBox="0 0 10 10" refX="9" refY="5" markerWidth="8" markerHeight="8" orient="auto-start-reverse">
      <path d="M 0 0 L 10 5 L 0 10 z" fill="#34d399"/>
    </marker>
    <marker id="arrow-amber" viewBox="0 0 10 10" refX="9" refY="5" markerWidth="8" markerHeight="8" orient="auto-start-reverse">
      <path d="M 0 0 L 10 5 L 0 10 z" fill="#fbbf24"/>
    </marker>
    <marker id="arrow-violet" viewBox="0 0 10 10" refX="9" refY="5" markerWidth="8" markerHeight="8" orient="auto-start-reverse">
      <path d="M 0 0 L 10 5 L 0 10 z" fill="#a78bfa"/>
    </marker>
    <marker id="arrow-rose" viewBox="0 0 10 10" refX="9" refY="5" markerWidth="8" markerHeight="8" orient="auto-start-reverse">
      <path d="M 0 0 L 10 5 L 0 10 z" fill="#fb7185"/>
    </marker>
  </defs>

  <!-- Background -->
  <rect width="1280" height="900" fill="#020617"/>
  <rect width="1280" height="900" fill="url(#grid)"/>

  <!-- Arrows (drawn early so they render behind boxes) -->
  <!-- User → FastAPI -->
  <line x1="220" y1="160" x2="220" y2="230" stroke="#22d3ee" stroke-width="1.5" marker-end="url(#arrow-cyan)"/>
  <text x="232" y="200" fill="#22d3ee" font-size="9">POST /ideas/analyze</text>

  <!-- FastAPI → Temporal -->
  <line x1="220" y1="310" x2="220" y2="380" stroke="#34d399" stroke-width="1.5" marker-end="url(#arrow-emerald)"/>
  <text x="232" y="350" fill="#34d399" font-size="9">start_workflow</text>

  <!-- Temporal → Postgres (embed_idea + ann_search read pgvector) -->
  <line x1="430" y1="490" x2="800" y2="490" stroke="#a78bfa" stroke-width="1.5" marker-end="url(#arrow-violet)"/>
  <text x="500" y="478" fill="#a78bfa" font-size="9">embed_idea · ann_search</text>

  <!-- Temporal → Claude (LLM call) -->
  <line x1="430" y1="445" x2="800" y2="345" stroke="#34d399" stroke-width="1.5" stroke-dasharray="4 4" marker-end="url(#arrow-emerald)"/>
  <text x="500" y="395" fill="#34d399" font-size="9">llm_compare_topk</text>

  <!-- Temporal → Langfuse (traces on every LLM call) -->
  <line x1="430" y1="535" x2="800" y2="660" stroke="#94a3b8" stroke-width="1.5" stroke-dasharray="2 3" marker-end="url(#arrow)"/>
  <text x="500" y="605" fill="#94a3b8" font-size="9">trace metadata + scoring</text>

  <!-- Eval → MLflow -->
  <line x1="1120" y1="745" x2="1120" y2="660" stroke="#94a3b8" stroke-width="1.5" stroke-dasharray="2 3" marker-end="url(#arrow)"/>
  <text x="1130" y="710" fill="#94a3b8" font-size="9">log run</text>

  <!-- Eval → Leaderboard CSV -->
  <line x1="1100" y1="810" x2="1100" y2="855" stroke="#94a3b8" stroke-width="1.5" marker-end="url(#arrow)"/>
  <text x="1110" y="838" fill="#94a3b8" font-size="9">append row</text>

  <!-- Temporal → Web fallback (SearXNG / Firecrawl) -->
  <line x1="430" y1="490" x2="55" y2="490" stroke="#fb7185" stroke-width="1.2" stroke-dasharray="4 4" marker-end="url(#arrow-rose)"/>
  <text x="60" y="478" fill="#fb7185" font-size="9">web_fallback_if_empty</text>

  <!-- Dagster → Postgres (nightly refresh) -->
  <line x1="620" y1="775" x2="830" y2="555" stroke="#fbbf24" stroke-width="1.5" stroke-dasharray="6 3" marker-end="url(#arrow-amber)"/>
  <text x="660" y="700" fill="#fbbf24" font-size="9">nightly re-embed (Phase 3)</text>

  <!-- Dagster → Eval (sensor on config change) -->
  <line x1="800" y1="800" x2="1000" y2="800" stroke="#fbbf24" stroke-width="1.5" stroke-dasharray="6 3" marker-end="url(#arrow-amber)"/>
  <text x="830" y="792" fill="#fbbf24" font-size="9">config_change sensor → eval regression (Phase 3)</text>

  <!-- ===== Frontend ===== -->
  <g>
    <rect x="60" y="60" width="320" height="100" rx="6" fill="#0f172a" stroke="#0f172a" stroke-width="1.5"/>
    <rect x="60" y="60" width="320" height="100" rx="6" fill="rgba(8, 51, 68, 0.4)" stroke="#22d3ee" stroke-width="1.5"/>
    <circle cx="80" cy="80" r="4" fill="#22d3ee"/>
    <text x="92" y="84" fill="#22d3ee" font-size="12" font-weight="bold">USER / BROWSER</text>
    <text x="80" y="110" fill="#22d3ee" font-size="11">Vite + React 19 + shadcn/ui</text>
    <text x="80" y="128" fill="#7dd3fc" font-size="9">localhost:15174 · dark mode</text>
    <text x="80" y="146" fill="#7dd3fc" font-size="9">paste idea → ranked competitors + structured verdicts</text>
  </g>

  <!-- ===== FastAPI ===== -->
  <g>
    <rect x="60" y="230" width="320" height="80" rx="6" fill="#0f172a" stroke="#0f172a" stroke-width="1.5"/>
    <rect x="60" y="230" width="320" height="80" rx="6" fill="rgba(6, 78, 59, 0.4)" stroke="#34d399" stroke-width="1.5"/>
    <circle cx="80" cy="250" r="4" fill="#34d399"/>
    <text x="92" y="254" fill="#34d399" font-size="12" font-weight="bold">FASTAPI</text>
    <text x="80" y="280" fill="#34d399" font-size="11">localhost:18000</text>
    <text x="80" y="296" fill="#6ee7b7" font-size="9">validates request → starts Temporal workflow</text>
  </g>

  <!-- ===== Web fallback (SearXNG → Firecrawl) ===== -->
  <g>
    <rect x="40" y="450" width="60" height="80" rx="6" fill="#0f172a" stroke="#0f172a" stroke-width="1.5"/>
    <rect x="40" y="450" width="60" height="80" rx="6" fill="rgba(30, 41, 59, 0.5)" stroke="#94a3b8" stroke-width="1.5"/>
    <text x="70" y="478" fill="#94a3b8" font-size="9" text-anchor="middle">SearXNG</text>
    <text x="70" y="495" fill="#94a3b8" font-size="9" text-anchor="middle">→</text>
    <text x="70" y="512" fill="#94a3b8" font-size="9" text-anchor="middle">Firecrawl</text>
  </g>

  <!-- ===== Temporal ===== -->
  <g>
    <rect x="110" y="380" width="640" height="220" rx="6" fill="#0f172a" stroke="#0f172a" stroke-width="1.5"/>
    <rect x="110" y="380" width="640" height="220" rx="6" fill="rgba(6, 78, 59, 0.4)" stroke="#34d399" stroke-width="1.5"/>
    <circle cx="130" cy="400" r="4" fill="#34d399"/>
    <text x="142" y="404" fill="#34d399" font-size="12" font-weight="bold">TEMPORAL · localhost:7233 (UI)</text>
    <text x="130" y="425" fill="#6ee7b7" font-size="10">IdeaAnalysisWorkflow</text>

    <!-- Activities as small boxes inside the Temporal container -->
    <g font-size="9">
      <!-- Activity boxes: 6 boxes, 3x2 layout, x:130..720, y:445..570 -->
      <rect x="130" y="445" width="100" height="40" rx="4" fill="#064e3b" stroke="#34d399" stroke-width="1"/>
      <text x="180" y="461" fill="#a7f3d0" text-anchor="middle">embed_idea</text>
      <text x="180" y="475" fill="#6ee7b7" text-anchor="middle" font-size="8">bge-m3</text>

      <rect x="240" y="445" width="100" height="40" rx="4" fill="#064e3b" stroke="#34d399" stroke-width="1"/>
      <text x="290" y="461" fill="#a7f3d0" text-anchor="middle">ann_search</text>
      <text x="290" y="475" fill="#6ee7b7" text-anchor="middle" font-size="8">pgvector HNSW</text>

      <rect x="350" y="445" width="100" height="40" rx="4" fill="#064e3b" stroke="#34d399" stroke-width="1"/>
      <text x="400" y="461" fill="#a7f3d0" text-anchor="middle">llm_compare_topk</text>
      <text x="400" y="475" fill="#6ee7b7" text-anchor="middle" font-size="8">Claude Sonnet 4.5</text>

      <rect x="460" y="445" width="100" height="40" rx="4" fill="#064e3b" stroke="#34d399" stroke-width="1"/>
      <text x="510" y="461" fill="#a7f3d0" text-anchor="middle">market_scope</text>
      <text x="510" y="475" fill="#6ee7b7" text-anchor="middle" font-size="8">Qwen 2.5 32B</text>

      <rect x="130" y="495" width="100" height="40" rx="4" fill="#064e3b" stroke="#34d399" stroke-width="1"/>
      <text x="180" y="511" fill="#a7f3d0" text-anchor="middle">web_fallback</text>
      <text x="180" y="525" fill="#6ee7b7" text-anchor="middle" font-size="8">if top_k empty</text>

      <rect x="240" y="495" width="100" height="40" rx="4" fill="#064e3b" stroke="#34d399" stroke-width="1"/>
      <text x="290" y="511" fill="#a7f3d0" text-anchor="middle">assemble</text>
      <text x="290" y="525" fill="#6ee7b7" text-anchor="middle" font-size="8">pure function</text>

      <rect x="350" y="495" width="160" height="40" rx="4" fill="#064e3b" stroke="#34d399" stroke-width="1"/>
      <text x="430" y="511" fill="#a7f3d0" text-anchor="middle">signal: review (low-confidence band)</text>
      <text x="430" y="525" fill="#6ee7b7" text-anchor="middle" font-size="8">wait for human → resume</text>
    </g>
  </g>

  <!-- ===== Claude (LLM, external) ===== -->
  <g>
    <rect x="800" y="305" width="160" height="80" rx="6" fill="#0f172a" stroke="#0f172a" stroke-width="1.5"/>
    <rect x="800" y="305" width="160" height="80" rx="6" fill="rgba(30, 41, 59, 0.5)" stroke="#94a3b8" stroke-width="1.5"/>
    <text x="880" y="332" fill="#cbd5e1" font-size="11" text-anchor="middle" font-weight="bold">Claude Sonnet 4.5</text>
    <text x="880" y="352" fill="#94a3b8" font-size="9" text-anchor="middle">structured compare</text>
    <text x="880" y="368" fill="#94a3b8" font-size="9" text-anchor="middle">Pydantic v2 + instructor</text>
  </g>

  <!-- ===== Postgres + pgvector ===== -->
  <g>
    <rect x="800" y="450" width="200" height="100" rx="6" fill="#0f172a" stroke="#0f172a" stroke-width="1.5"/>
    <rect x="800" y="450" width="200" height="100" rx="6" fill="rgba(76, 29, 149, 0.4)" stroke="#a78bfa" stroke-width="1.5"/>
    <circle cx="820" cy="470" r="4" fill="#a78bfa"/>
    <text x="832" y="474" fill="#a78bfa" font-size="12" font-weight="bold">POSTGRES + PGVECTOR</text>
    <text x="820" y="498" fill="#c4b5fd" font-size="10">localhost:15433</text>
    <text x="820" y="515" fill="#c4b5fd" font-size="9">• companies  (10,983)</text>
    <text x="820" y="529" fill="#c4b5fd" font-size="9">• company_embeddings  vector(1024)</text>
    <text x="820" y="543" fill="#c4b5fd" font-size="9">• eval_runs  (leaderboard history)</text>
  </g>

  <!-- ===== Langfuse ===== -->
  <g>
    <rect x="800" y="620" width="160" height="80" rx="6" fill="#0f172a" stroke="#0f172a" stroke-width="1.5"/>
    <rect x="800" y="620" width="160" height="80" rx="6" fill="rgba(30, 41, 59, 0.5)" stroke="#94a3b8" stroke-width="1.5"/>
    <text x="880" y="647" fill="#cbd5e1" font-size="11" text-anchor="middle" font-weight="bold">LANGFUSE</text>
    <text x="880" y="666" fill="#94a3b8" font-size="9" text-anchor="middle">localhost:13000/13001</text>
    <text x="880" y="682" fill="#94a3b8" font-size="9" text-anchor="middle">LLM traces · scoring · feedback</text>
  </g>

  <!-- ===== MLflow ===== -->
  <g>
    <rect x="1020" y="620" width="160" height="80" rx="6" fill="#0f172a" stroke="#0f172a" stroke-width="1.5"/>
    <rect x="1020" y="620" width="160" height="80" rx="6" fill="rgba(30, 41, 59, 0.5)" stroke="#94a3b8" stroke-width="1.5"/>
    <text x="1100" y="647" fill="#cbd5e1" font-size="11" text-anchor="middle" font-weight="bold">MLFLOW</text>
    <text x="1100" y="666" fill="#94a3b8" font-size="9" text-anchor="middle">localhost:15000</text>
    <text x="1100" y="682" fill="#94a3b8" font-size="9" text-anchor="middle">params · metrics · artifacts · compare</text>
  </g>

  <!-- ===== Dagster (Phase 3, dashed amber boundary) ===== -->
  <g>
    <rect x="380" y="690" width="520" height="180" rx="12" fill="rgba(120, 53, 15, 0.10)" stroke="#fbbf24" stroke-width="1.5" stroke-dasharray="8 4"/>
    <circle cx="400" cy="710" r="4" fill="#fbbf24"/>
    <text x="412" y="714" fill="#fbbf24" font-size="12" font-weight="bold">DAGSTER · localhost:13002  (Phase 3 — not yet built)</text>
    <text x="400" y="738" fill="#fde68a" font-size="10">batch data platform · assets · sensors · lineage</text>

    <!-- Asset boxes -->
    <g font-size="9">
      <rect x="400" y="755" width="100" height="35" rx="4" fill="rgba(120, 53, 15, 0.30)" stroke="#fbbf24" stroke-width="1"/>
      <text x="450" y="771" fill="#fde68a" text-anchor="middle">yc_directory</text>
      <text x="450" y="784" fill="#fcd34d" text-anchor="middle" font-size="8">@asset</text>

      <rect x="510" y="755" width="100" height="35" rx="4" fill="rgba(120, 53, 15, 0.30)" stroke="#fbbf24" stroke-width="1"/>
      <text x="560" y="771" fill="#fde68a" text-anchor="middle">product_hunt_archive</text>
      <text x="560" y="784" fill="#fcd34d" text-anchor="middle" font-size="8">@asset</text>

      <rect x="620" y="755" width="100" height="35" rx="4" fill="rgba(120, 53, 15, 0.30)" stroke="#fbbf24" stroke-width="1"/>
      <text x="670" y="771" fill="#fde68a" text-anchor="middle">hn_show_posts</text>
      <text x="670" y="784" fill="#fcd34d" text-anchor="middle" font-size="8">@asset</text>

      <rect x="730" y="755" width="155" height="35" rx="4" fill="rgba(120, 53, 15, 0.30)" stroke="#fbbf24" stroke-width="1"/>
      <text x="807" y="771" fill="#fde68a" text-anchor="middle">company_embeddings (merged)</text>
      <text x="807" y="784" fill="#fcd34d" text-anchor="middle" font-size="8">@asset · HNSW</text>

      <rect x="400" y="810" width="220" height="35" rx="4" fill="rgba(120, 53, 15, 0.20)" stroke="#fbbf24" stroke-width="1" stroke-dasharray="3 2"/>
      <text x="510" y="826" fill="#fde68a" text-anchor="middle">@daily_schedule nightly_re_embedding</text>
      <text x="510" y="839" fill="#fcd34d" text-anchor="middle" font-size="8">on snapshot change</text>

      <rect x="640" y="810" width="245" height="35" rx="4" fill="rgba(120, 53, 15, 0.20)" stroke="#fbbf24" stroke-width="1" stroke-dasharray="3 2"/>
      <text x="762" y="826" fill="#fde68a" text-anchor="middle">@sensor config_change → eval_regression_job</text>
      <text x="762" y="839" fill="#fcd34d" text-anchor="middle" font-size="8">fires eval.run on configs/*.yaml mtime change</text>
    </g>
  </g>

  <!-- ===== Eval harness ===== -->
  <g>
    <rect x="1000" y="730" width="200" height="125" rx="6" fill="#0f172a" stroke="#0f172a" stroke-width="1.5"/>
    <rect x="1000" y="730" width="200" height="125" rx="6" fill="rgba(6, 78, 59, 0.4)" stroke="#34d399" stroke-width="1.5"/>
    <circle cx="1020" cy="750" r="4" fill="#34d399"/>
    <text x="1032" y="754" fill="#34d399" font-size="12" font-weight="bold">EVAL HARNESS</text>
    <text x="1020" y="775" fill="#a7f3d0" font-size="10">python -m src.eval.run</text>
    <text x="1020" y="793" fill="#6ee7b7" font-size="9">→ 3 configs (dense / bm25 / hybrid_rrf)</text>
    <text x="1020" y="807" fill="#6ee7b7" font-size="9">→ 300-idea benchmark</text>
    <text x="1020" y="821" fill="#6ee7b7" font-size="9">→ MRR / nDCG@10 / P@5 / R@10 / FPR</text>
    <text x="1020" y="835" fill="#6ee7b7" font-size="9">→ logs run to MLflow</text>
  </g>

  <!-- ===== Leaderboard CSV ===== -->
  <g>
    <rect x="1050" y="855" width="180" height="30" rx="6" fill="#0f172a" stroke="#0f172a" stroke-width="1.5"/>
    <rect x="1050" y="855" width="180" height="30" rx="6" fill="rgba(76, 29, 149, 0.4)" stroke="#a78bfa" stroke-width="1.5"/>
    <text x="1140" y="874" fill="#a78bfa" font-size="10" text-anchor="middle">results/leaderboard.csv</text>
  </g>

  <!-- ===== Legend ===== -->
  <g transform="translate(60, 30)">
    <text x="0" y="0" fill="#22d3ee" font-size="11" font-weight="bold">PriorArt · system architecture (v2 · Phase 2)</text>
    <text x="0" y="16" fill="#64748b" font-size="9">Dark theme · slate-950 grid · JetBrains Mono</text>
  </g>

  <!-- Legend (bottom, outside any boundary) -->
  <g transform="translate(60, 758)" font-size="10">
    <!-- This is above the Dagster boundary which starts at y=690. The legend goes BELOW that. Move further down to y=875 isn't viable either. Let's place it at the bottom-right corner. -->
  </g>

  <!-- Legend (right side, vertical column) -->
  <g transform="translate(820, 30)" font-size="9">
    <text x="0" y="0" fill="#cbd5e1" font-size="10" font-weight="bold">LEGEND</text>
    <rect x="0" y="10" width="12" height="12" rx="2" fill="rgba(8, 51, 68, 0.4)" stroke="#22d3ee" stroke-width="1"/>
    <text x="18" y="20" fill="#cbd5e1">Frontend (Vite + React)</text>

    <rect x="0" y="28" width="12" height="12" rx="2" fill="rgba(6, 78, 59, 0.4)" stroke="#34d399" stroke-width="1"/>
    <text x="18" y="38" fill="#cbd5e1">Backend (FastAPI / Temporal)</text>

    <rect x="0" y="46" width="12" height="12" rx="2" fill="rgba(76, 29, 149, 0.4)" stroke="#a78bfa" stroke-width="1"/>
    <text x="18" y="56" fill="#cbd5e1">Database (pgvector)</text>

    <rect x="0" y="64" width="12" height="12" rx="2" fill="rgba(30, 41, 59, 0.5)" stroke="#94a3b8" stroke-width="1"/>
    <text x="18" y="74" fill="#cbd5e1">External / observability</text>

    <rect x="0" y="82" width="12" height="12" rx="2" fill="rgba(120, 53, 15, 0.30)" stroke="#fbbf24" stroke-width="1"/>
    <text x="18" y="92" fill="#cbd5e1">Phase 3 (Dagster)</text>

    <line x1="0" y1="105" x2="14" y2="105" stroke="#94a3b8" stroke-width="1.5"/>
    <text x="18" y="109" fill="#cbd5e1">solid: synchronous</text>

    <line x1="0" y1="119" x2="14" y2="119" stroke="#94a3b8" stroke-width="1.5" stroke-dasharray="2 3"/>
    <text x="18" y="123" fill="#cbd5e1">dotted: async / trace</text>

    <line x1="0" y1="133" x2="14" y2="133" stroke="#fbbf24" stroke-width="1.5" stroke-dasharray="6 3"/>
    <text x="18" y="137" fill="#cbd5e1">amber dashed: scheduled</text>

    <line x1="0" y1="147" x2="14" y2="147" stroke="#fb7185" stroke-width="1.2" stroke-dasharray="4 4"/>
    <text x="18" y="151" fill="#cbd5e1">rose dashed: web fallback</text>
  </g>

  <!-- Footer -->
  <text x="640" y="893" fill="#475569" font-size="8" text-anchor="middle">rendered from docs/ARCHITECTURE.md · Boundary rule: Temporal = per-idea workflow (long-running, signal-based); Dagster = batch data platform (Phase 3, scheduled + sensor-driven)</text>
</svg>